<svg xmlns="http://www.w3.org/2000/svg" width="64" height="64" viewBox="0 0 64 64">
  <defs>
    <linearGradient id="g" x1="0" x2="1" y1="0" y2="1">
      <stop offset="0" stop-color="#21c1f3"/>
      <stop offset="1" stop-color="#8b5cf6"/>
    </linearGradient>
  </defs>
  <rect x="0" y="0" width="64" height="64" rx="14" fill="#0b1220"/>
  <circle cx="32" cy="32" r="22" fill="#131a2a" stroke="#1f2840" stroke-width="2"/>
  <path d="M26 22h10a2 2 0 0 1 2 2v6l6 0a2 2 0 0 1 2 2v8a2 2 0 0 1-2 2h-10a2 2 0 0 1-2-2v-6l-6 0a2 2 0 0 1-2-2v-8a2 2 0 0 1 2-2z" fill="url(#g)"/>
  <text x="32" y="54" text-anchor="middle" font-family="Inter, Arial, sans-serif" font-weight="700" font-size="10" fill="#e6eefc">OPSD</text>
</svg>